<?xml version="1.0" encoding="utf-8"?>
<svg class="h-full" viewBox="0 0 1195 548" fill="none" xmlns="http://www.w3.org/2000/svg"><path d="M1153.02 350.418L1031.86 0H1013.26L907.939 290.842C907.185 280.536 905.928 270.983 904.168 261.683C901.403 247.857 897.13 235.037 891.097 223.473C879.534 200.598 851.632 184.259 807.392 175.209C844.845 169.428 872.747 159.372 891.6 145.044C909.95 130.967 918.999 112.114 918.999 88.7358C918.999 60.0789 909.195 39.4661 889.337 27.1486C870.233 14.3284 841.075 8.04404 801.862 8.04404H615.096V20.1101H667.632V349.161H615.096V362.484H788.036V349.161H735.501V179.985H762.9C788.539 179.985 807.14 189.286 818.452 208.139C823.731 217.44 827.501 228.501 829.512 241.572C831.523 254.644 833.283 269.727 834.288 286.569L835.796 309.444C841.075 334.582 853.895 351.927 874.507 361.479C885.567 366.506 898.387 369.02 913.217 369.02C927.294 369.02 943.381 367.009 960.977 362.736V350.418C951.677 351.424 944.387 351.927 938.605 351.927C930.562 351.927 924.78 351.172 921.512 349.161C915.228 345.894 910.955 340.363 908.693 332.068V330.308L934.835 255.147H1049.96L1081.38 350.167H1026.84V362.484H1194.5V350.167H1153.02V350.418ZM735.752 167.668V20.1101H787.534C809.403 20.1101 824.987 26.1431 834.037 37.9578C842.583 49.5211 846.605 68.3743 846.605 94.5174C846.605 119.655 841.326 138.257 830.769 150.072C820.211 161.886 803.37 167.919 780.495 167.919H735.752V167.668ZM941.119 243.081L994.66 95.0202L1043.93 243.081H941.119ZM362.472 20.1101H309.936V369.523H294.1L68.8746 30.1651V349.161H120.908V362.484H0V349.161H52.033V20.1101H0V8.04404H135.99L293.094 238.807V20.1101H242.067V8.04404H362.472V20.1101ZM604.287 55.3028C570.604 18.6018 532.145 0 488.658 0C444.669 0 406.21 18.6018 373.029 55.8055C340.1 92.5064 323.761 135.743 323.761 185.264C323.761 235.037 340.351 278.525 373.532 315.226C406.461 351.927 444.92 370.528 488.658 370.528C532.145 370.528 570.855 351.927 604.287 314.723C637.467 278.273 654.058 235.037 654.058 185.264C654.309 135.24 637.719 92.0037 604.287 55.3028ZM576.134 248.862C576.134 284.558 568.844 311.706 554.265 330.56C540.188 349.161 518.068 358.211 488.407 358.211C458.745 358.211 436.625 348.91 422.548 330.56C408.472 311.958 401.434 284.809 401.434 248.862V121.666C401.434 85.7193 408.472 58.5706 422.548 39.9688C436.625 21.367 458.745 12.3174 488.407 12.3174C517.817 12.3174 539.937 21.6183 554.768 39.9688C568.844 59.0734 575.882 86.4734 575.882 121.666V248.862H576.134ZM280.023 487.167H288.57V546.995H278.012L247.848 499.233V500.49L248.1 507.528V546.995H239.553V487.167H249.859L280.275 535.18C280.023 531.158 280.023 528.141 280.023 526.13V487.167ZM371.772 489.932C367.248 487.418 361.969 486.413 355.936 486.413C346.636 486.413 339.346 489.178 334.067 494.457C328.788 499.736 326.275 507.277 326.275 516.829C326.275 523.114 327.532 528.644 329.794 533.169C332.056 537.945 335.575 541.464 340.1 543.978C344.625 546.492 349.903 547.749 355.936 547.749C361.969 547.749 367.248 546.492 371.772 543.978C376.297 541.464 379.816 537.694 382.078 533.169C384.341 528.393 385.597 522.862 385.597 516.829C385.597 510.545 384.341 505.015 382.078 500.49C379.816 495.965 376.297 492.446 371.772 489.932ZM355.936 540.207C349.652 540.207 344.625 538.196 341.105 533.923C337.586 529.65 335.827 524.119 335.827 516.829C335.827 509.539 337.586 504.009 341.105 499.987C344.625 495.965 349.652 494.206 356.187 494.206C362.472 494.206 367.499 496.217 371.018 500.239C374.537 504.261 376.297 509.791 376.297 516.829C376.297 524.119 374.537 529.901 371.018 533.923C367.499 538.196 362.472 540.207 355.936 540.207ZM468.8 516.075C471.314 513.059 472.822 509.037 472.822 504.763C472.822 499.233 470.811 494.96 467.292 491.943C463.521 488.927 458.243 487.418 451.707 487.418H423.554V547.246H432.854V522.862H449.947L465.029 547.246H475.838L458.997 521.857C463.27 520.851 466.538 519.092 468.8 516.075ZM432.603 494.96H450.702C454.975 494.96 457.991 495.714 460.254 497.473C462.516 499.233 463.521 501.495 463.521 504.763C463.521 508.031 462.516 510.545 460.254 512.305C457.991 514.064 454.975 515.07 450.953 515.07H432.603V494.96ZM530.134 487.167L505.751 546.995H515.554L522.341 529.901H547.981L554.768 546.995H564.32L540.188 487.167H530.134ZM534.91 496.217L535.412 497.473C536.166 499.987 536.921 501.998 537.675 504.009L544.713 522.36H524.855L531.893 504.009C533.401 500.993 534.156 498.479 534.91 496.217ZM690.003 516.075C692.517 513.059 694.025 509.037 694.025 504.763C694.025 499.233 692.014 494.96 688.495 491.943C684.724 488.927 679.446 487.418 672.91 487.418H644.757V547.246H654.058V522.862H671.151L686.233 547.246H697.041L680.2 521.857C684.473 520.851 687.741 519.092 690.003 516.075ZM653.806 494.96H671.905C676.178 494.96 679.194 495.714 681.457 497.473C683.719 499.233 684.724 501.495 684.724 504.763C684.724 508.031 683.719 510.545 681.457 512.305C679.194 514.064 676.178 515.07 672.156 515.07H653.806V494.96ZM743.293 539.202H781.501V546.995H733.992V487.167H779.741V494.96H743.293V512.305H777.228V520.097H743.293V539.202ZM828.004 539.202H866.212V546.995H818.703V487.167H864.452V494.96H828.004V512.305H861.938V520.097H828.004V539.202ZM946.901 494.96C941.37 489.932 933.578 487.418 923.523 487.418H903.414V547.246H926.037C931.818 547.246 936.846 545.989 941.37 543.475C945.895 540.961 949.163 537.442 951.677 532.666C954.19 528.141 955.196 522.611 955.196 516.578C955.196 507.277 952.431 499.987 946.901 494.96ZM912.715 494.96H923.272C930.562 494.96 936.092 496.719 940.114 500.49C943.884 504.261 945.895 509.539 945.895 516.578C945.895 521.354 945.141 525.376 943.381 528.895C941.622 532.415 939.36 534.928 936.092 536.688C933.075 538.448 929.305 539.453 925.032 539.453H912.715V494.96Z" fill="#58595B"></path></svg>