<svg class="h-full" viewBox="0 0 41 37" fill="none" xmlns="http://www.w3.org/2000/svg"><path d="M37.5 3.1C35.4 1 32.9 0 29.8 0C28.1 0 26.5 0.4 24.9 1.2C23.3 2.1 21.8 3.3 20.3 5.1C18.8 3.3 17.3 2 15.7 1.2C14.1 0.4 12.5 0 10.8 0C7.7 0 5.2 1 3.1 3.1C1 5.2 0 7.8 0 10.9C0 14.8 1.5 18.4 4.6 22C7.6 25.5 11.2 29.2 15.3 33L18 35.5C18.3 35.8 19.2 36.3 20.3 36.3C21.4 36.3 22.3 35.8 22.6 35.5L25.3 33C29.4 29.2 33 25.5 36 22C39.1 18.4 40.6 14.8 40.6 10.9C40.6 7.8 39.6 5.3 37.5 3.1ZM35.3 16.6C34 18.7 32.5 20.8 30.7 22.8C28.9 24.8 27 26.7 25.1 28.4C23.2 30.1 21.6 31.6 20.3 32.7C19 31.6 17.4 30.1 15.5 28.4C13.6 26.7 11.7 24.8 9.9 22.8C8.1 20.8 6.6 18.7 5.3 16.6C4 14.5 3.4 12.5 3.4 10.6C3.4 8.4 4.1 6.6 5.5 5.2C6.9 3.8 8.7 3.1 10.8 3.1C12.4 3.1 14 3.6 15.5 4.6C17 5.6 18.2 6.9 19.1 8.6C19.3 8.9 19.5 9.1 19.7 9.2C19.9 9.3 20.1 9.4 20.3 9.4C20.5 9.4 20.7 9.3 20.9 9.2C21.1 9.1 21.3 8.9 21.5 8.6C22.4 6.9 23.6 5.6 25.1 4.6C26.6 3.6 28.2 3.1 29.8 3.1C31.9 3.1 33.7 3.8 35.1 5.2C36.5 6.6 37.2 8.4 37.2 10.6C37.2 12.6 36.6 14.6 35.3 16.6Z" fill="black"></path></svg>