<?xml version="1.0" standalone="no"?>
<!DOCTYPE svg PUBLIC "-//W3C//DTD SVG 20010904//EN"
 "http://www.w3.org/TR/2001/REC-SVG-20010904/DTD/svg10.dtd">
<svg version="1.0" xmlns="http://www.w3.org/2000/svg"
 width="512.000000pt" height="512.000000pt" viewBox="0 0 512.000000 512.000000"
 preserveAspectRatio="xMidYMid meet">

<g transform="translate(0.000000,512.000000) scale(0.100000,-0.100000)"
fill="black" stroke="none">
<path d="M1166 4679 c-491 -72 -917 -426 -1085 -902 -160 -454 -73 -966 226
-1336 78 -96 2145 -2191 2181 -2210 15 -8 47 -15 72 -15 25 0 57 7 72 15 36
19 2103 2114 2181 2210 257 318 359 744 277 1151 -53 258 -171 484 -353 675
-190 199 -391 317 -657 385 -154 40 -383 50 -541 23 -253 -42 -493 -155 -679
-320 -36 -32 -118 -112 -182 -179 l-118 -121 -117 121 c-146 150 -228 223
-318 284 -153 103 -354 184 -534 214 -102 17 -324 20 -425 5z m457 -337 c105
-29 222 -81 310 -138 46 -31 158 -133 312 -285 334 -330 295 -330 635 5 249
246 319 301 460 362 149 65 215 78 405 78 188 1 256 -11 395 -67 456 -185 724
-666 645 -1156 -29 -176 -107 -356 -210 -486 -57 -72 -2002 -2045 -2015 -2045
-14 0 -1958 1973 -2017 2047 -72 91 -157 264 -190 388 -23 89 -26 118 -26 265
0 145 3 176 25 261 35 128 77 223 144 327 65 100 191 229 283 292 122 82 296
151 436 173 17 3 98 4 180 2 113 -2 169 -8 228 -23z"/>
</g>
</svg>
