<?xml version="1.0" encoding="utf-8"?>
<svg class="w-full h-auto" viewBox="0 0 2501 2228" fill="none" xmlns="http://www.w3.org/2000/svg"><path d="M143.246 1522C120.383 1522 90.7433 1546.24 73.2583 1562.38C34.8173 1596.5 0 1659.25 0 1709.61C0 1781.17 60.8584 1808.18 76.2513 1808.18C81.3264 1808.18 85.6532 1805.56 85.6532 1798.67C85.6532 1793.28 82.2298 1788.78 78.8239 1784.17C64.7298 1762.62 60.2028 1742.06 60.2028 1714.33C60.2028 1656.5 86.872 1603.5 108.994 1579.24C113.073 1574.85 122.29 1565.37 125.048 1565.37C127.785 1565.37 128.464 1567.6 128.464 1574.49L125.894 1952.97C125.894 2012.14 108.821 2035.64 108.821 2049.58C108.821 2055.7 111.472 2057.29 116.532 2057.29C140.491 2057.29 164.367 2028.08 171.131 2017.43C192.107 1981.2 197.252 1952.92 197.252 1871.34V1553.3C197.252 1544.69 194.838 1540.97 186.659 1535.66C174.7 1528.07 160.996 1522 143.246 1522ZM828.289 1523.06C817.02 1523.06 812.203 1528.95 811.67 1547.18L809.17 1622.65L743.161 1620.36C739.157 1620.26 737.348 1621.53 735.596 1625.05C729.991 1635.56 727.04 1643.79 727.04 1657.51C727.04 1668.67 732.103 1669.86 736.617 1669.86L805.296 1671.83L805.086 1816.03C805.086 1846.61 785.787 1886.29 751.542 1919.29C751.542 1919.29 754.488 1909.33 754.32 1898.87C754.32 1869.29 735.278 1842.47 709.893 1823.5L647.934 1776.89C660.922 1761.86 682.926 1732.06 682.926 1706.9C682.926 1687.39 670.659 1679.19 647.791 1679.19C615.516 1679.19 578.086 1708.75 578.086 1752.6C578.086 1768.58 585.196 1782.96 596.004 1793.96C581.082 1822.28 559.968 1859.53 544.29 1886.06C532.448 1906.37 512.415 1937.49 500.564 1937.49C491.825 1937.49 487.786 1923.74 487.786 1870.92C487.786 1827.03 490.904 1779.32 492.468 1733.52C492.468 1723.02 490.746 1713.33 477.118 1703.84C464.58 1695.81 449.097 1684.59 433.149 1684.59C397.693 1684.59 373.539 1717.21 356.97 1749.11C339.823 1782.18 330.551 1810.04 317.47 1850.47L318.914 1711.34C319.36 1701.42 316.855 1697.57 308.917 1694.19C298.619 1689.83 283.461 1684.79 270.015 1684.79C258.779 1684.79 257.413 1689.64 257.413 1701.44L255.901 1868.38L255.728 1932.77C255.728 1990.82 262.998 2000.5 297.445 2000.5C316.517 2000.5 322.625 1998.26 323.003 1982.41C323.526 1971.92 328.541 1946.52 335.326 1921.04C355.168 1845.85 378.679 1786.37 419.217 1741.04C423.444 1736.64 426.712 1738.22 426.046 1744.46C426.046 1744.46 419.638 1846.22 419.638 1887.84C419.638 1961.87 431.029 2000.5 467.863 2000.5C504.014 2000.5 539.52 1954.05 558.902 1922.7L621.077 1818.7C661.364 1853.03 689.478 1879.65 689.478 1912.03C689.478 1932.15 676.78 1951.84 657.438 1951.84C633.266 1951.84 617.823 1926.35 601.497 1926.35C587.946 1926.35 570.554 1952.51 570.554 1967.37C570.554 1981.39 601.157 2001.23 656.067 2001.23C737.125 2001.23 780.609 1945.6 806.705 1884C811.7 1957.12 840.832 1999.82 886.267 1999.82C916.069 1999.82 950.514 1962.17 966.182 1916.18C966.182 1916.18 967.729 1928.12 979.628 1952.58C996.007 1984.52 1020.91 1999.19 1051.84 1999.19C1090.3 1999.19 1123.21 1975.87 1143.29 1936.74C1146.34 1966.39 1171.24 1999.05 1211.27 1999.05C1236.41 1999.05 1259.32 1979.79 1274.36 1948.07C1274.36 1948.07 1293.84 2000.46 1350.19 2000.46C1381.84 2000.46 1419.32 1971.14 1428.27 1949.83L1429.26 1980.81L1345.65 2057.91C1321.38 2081.48 1295.55 2115.34 1295.55 2152.83C1295.55 2200.5 1340.57 2227.92 1380.18 2227.92C1421.36 2227.92 1448.69 2201.83 1463.65 2179.97C1482.49 2151.69 1490.44 2098.37 1490.44 2046.26L1488.58 1967.9C1544.93 1905.96 1589.03 1820.35 1608.66 1759.77L1651.43 1758.65C1659.72 1758.09 1659.31 1761.35 1658.16 1766.18C1650.64 1797.95 1644.08 1833.92 1644.08 1869.75C1644.08 1928.94 1657.71 1954.7 1677.31 1975.75C1694.35 1993.39 1711.29 1999.34 1729.13 1999.34C1764.01 1999.34 1785.91 1970.54 1792.85 1952.38C1809.23 1984.32 1833.36 1999.2 1864.28 1999.2C1902.75 1999.2 1935.65 1975.88 1955.74 1936.75C1958.79 1966.4 1983.68 1999.06 2023.72 1999.06C2053.63 1999.06 2070.98 1981.8 2084.63 1949.28C2084.9 1959.74 2085.3 1970.89 2085.61 1981.34C2085.97 1986.75 2090.3 1990.18 2094.17 1991.59C2106.88 1996.4 2118.04 1998.81 2128.07 1998.81C2154.22 1998.81 2159.89 1993.44 2159.89 1976.34C2159.89 1948.15 2160.72 1903.61 2168.73 1867.85C2177.23 1832.24 2190.07 1791.94 2207.77 1763.89C2209.37 1760.99 2213.28 1761.75 2213.45 1765.26C2215.99 1825.27 2220 1926.85 2235.77 1953.15C2243.54 1965.69 2255.57 1974.83 2273.57 1974.83C2282.01 1974.83 2292.36 1971.23 2295.01 1968.99C2297.69 1966.9 2299.04 1964.57 2298.88 1960.26C2298.88 1883.55 2322.8 1809.28 2346.76 1759.35C2347.42 1757.87 2349.29 1757.75 2349.22 1759.7L2347.89 1814.98C2347.89 1905.76 2354.43 1963.11 2399.78 1990.68C2408.69 1995.67 2418.74 1998.28 2428.96 1998.25C2452.16 1998.25 2473.2 1985.29 2483.6 1964.45C2492.07 1948.26 2500 1917.09 2500 1899.43C2500 1892.6 2500.08 1881.47 2488.88 1881.47C2482.74 1881.47 2479.05 1886 2477.58 1892.85C2474.01 1907.68 2471.08 1920.39 2465.54 1935.06C2460.24 1949.05 2452.34 1957.2 2442.97 1957.2C2431.96 1957.2 2426.38 1948.54 2423.18 1943.19C2409.14 1921.77 2408.01 1872.56 2408.01 1831.48L2411.39 1725.77C2411.39 1717.02 2407.74 1706.55 2394.25 1698.83C2385.19 1693.62 2362.27 1683.8 2348.24 1683.8C2335.22 1683.8 2328.92 1691.17 2324.22 1702C2315.41 1721.44 2285.97 1797.69 2278.07 1859.68C2277.79 1861.31 2275.75 1861.66 2275.61 1859.57C2271.51 1815.73 2269.4 1762.91 2269.45 1727.28C2269.45 1716.5 2266.81 1701.1 2243.96 1691.12C2232.85 1686.52 2223.67 1683.7 2212.45 1683.7C2198.53 1683.7 2195.54 1690.51 2190.55 1699.54C2174.78 1728.67 2163.88 1766.66 2147.53 1814.59L2147.78 1704.93C2147.78 1699.8 2144.64 1693.08 2135.64 1691.27C2113.31 1686.14 2102.97 1683.81 2094.17 1683.81C2087.76 1683.81 2084.24 1688.91 2084.24 1694.44L2083.04 1881.41C2078.72 1904.3 2061.22 1958.93 2036.39 1958.93C2016.01 1958.93 2006.5 1938.28 2006.5 1851.98L2010.2 1711.72C2010.2 1702.87 2004.39 1699.14 1995.91 1695.39C1983.79 1690.58 1974.15 1688.67 1961.83 1688.67C1946.37 1688.67 1941.07 1696.07 1944.19 1713.84C1927.2 1690.85 1910.21 1678.14 1880.19 1678.14C1819.93 1678.14 1774.51 1750.63 1774.51 1855.96C1773.92 1885.5 1781.06 1914.86 1781.06 1914.86C1775.6 1939.37 1762.79 1959.35 1745.08 1959.35C1722.74 1959.35 1708.5 1927.77 1708.5 1873.03C1708.5 1818.13 1729.41 1756.21 1729.41 1739.43C1729.41 1719.92 1716.63 1707.57 1694 1707.57C1682.66 1707.57 1640.61 1717.11 1619.05 1720.24C1619.05 1720.24 1621.48 1709.98 1621.3 1701.9C1621.3 1682.66 1612.27 1670.61 1589.86 1670.61C1562.48 1670.61 1542.37 1690.16 1542.37 1723.52C1542.37 1738.49 1550.99 1752.34 1562.4 1759.78C1547.59 1821.56 1523.51 1867.51 1488.02 1918.83L1491.01 1710.99C1491.01 1704.23 1489.21 1700.03 1475.97 1694.9C1468.98 1691.87 1457.57 1688.38 1443.2 1688.38C1422.36 1688.38 1423.74 1703.26 1424.86 1714.4C1415.32 1697.5 1394.46 1677.43 1362.26 1677.43C1274.53 1677.43 1247.59 1811.22 1260.8 1906.23C1260.8 1917.81 1249.49 1958.93 1223.94 1958.93C1203.56 1958.93 1194.06 1938.28 1194.06 1851.98L1197.79 1711.72C1197.79 1702.86 1191.93 1699.14 1183.46 1695.39C1171.34 1690.58 1161.73 1688.67 1149.41 1688.67C1133.95 1688.67 1128.64 1696.07 1131.77 1713.84C1114.78 1690.85 1097.75 1678.14 1067.74 1678.14C1007.48 1678.14 961.452 1744.43 961.452 1849.76C961.452 1889.97 926.833 1951.32 902.556 1951.32C889.07 1951.32 874.711 1926.57 874.711 1863.31C874.778 1820.2 880.659 1673.42 880.659 1673.42L965.396 1672.05C969.44 1672.01 971.783 1667.59 973.282 1664.87C977.173 1656.97 979.055 1651.71 979.055 1642.27C979.055 1633.74 977.348 1630.63 966.417 1630.02L881.96 1624.95L885.554 1546.27C885.807 1541.3 882.809 1538.06 877.386 1535.64C861.037 1529.24 840.987 1523.06 828.289 1523.06ZM1084.75 1729.21C1107.34 1729.21 1130.27 1749.82 1130.27 1822.92C1130.27 1914.97 1096.74 1957.8 1070.95 1957.8C1046.78 1957.8 1028.42 1923.67 1028.42 1856.65C1028.42 1788.91 1046.34 1729.21 1084.75 1729.21ZM1898.39 1729.21C1920.99 1729.21 1943.91 1749.82 1943.91 1822.92C1943.91 1914.97 1910.38 1957.8 1884.59 1957.8C1860.42 1957.8 1842.06 1923.67 1842.06 1856.65C1842.07 1788.91 1859.99 1729.21 1898.39 1729.21ZM1382.33 1729.64C1411.82 1729.64 1424.86 1760.03 1424.86 1818.94C1424.86 1907.78 1398.45 1958.35 1366.39 1958.35C1345.91 1958.35 1322.37 1924.74 1323.61 1858.62C1323.61 1816.34 1337.4 1729.64 1382.33 1729.64ZM1432.25 2026.8V2061.79C1432.25 2177.89 1401.31 2197.71 1376.45 2197.71C1367.03 2197.71 1343.96 2190.6 1343.96 2161.87C1343.96 2121.72 1385.94 2076.04 1398.99 2061.93L1432.25 2026.8Z" fill="#3F5D87"></path><path d="M1617.03 0H882.973C717.855 0 584 133.855 584 298.973V1033.03C584 1198.15 717.855 1332 882.973 1332H1617.03C1782.15 1332 1916 1198.15 1916 1033.03V298.973C1916 133.855 1782.15 0 1617.03 0Z" fill="url(#paint0_linear_358_592)"></path><path d="M1045.38 230.689H1460.62C1469.85 235.303 1483.69 235.303 1492.92 239.917C1533.41 246.479 1571.27 264.205 1602.24 291.101C1633.21 317.998 1656.07 352.999 1668.24 392.172C1675.05 414.746 1679.69 437.92 1682.08 461.379V867.392C1675.49 918.849 1656.49 967.932 1626.72 1010.42C1601.18 1040.01 1569.16 1063.31 1533.15 1078.51C1497.14 1093.72 1458.11 1100.41 1419.1 1098.08H1073.06C1011.31 1101.08 950.591 1081.39 902.352 1042.72C873.018 1017.37 849.868 985.652 834.674 949.987C819.481 914.321 812.645 875.654 814.69 836.941V513.976C813.928 490.811 815.473 467.628 819.304 444.769C823.963 397.468 843.411 352.838 874.886 317.223C906.36 281.607 948.259 256.817 994.628 246.376L1045.38 230.689ZM902.352 668.999V848.937C900.385 871.85 903.45 894.917 911.333 916.522C919.217 938.126 931.728 957.747 947.99 974.009C964.252 990.271 983.872 1002.78 1005.48 1010.66C1027.08 1018.55 1050.15 1021.61 1073.06 1019.65C1193.02 1024.26 1312.98 1024.26 1432.94 1019.65C1539.05 1019.65 1599.03 955.054 1603.65 848.937C1608.26 728.978 1608.26 609.02 1603.65 489.061C1604.84 466.328 1601.25 443.598 1593.09 422.345C1584.93 401.092 1572.4 381.791 1556.3 365.694C1540.21 349.598 1520.91 337.065 1499.65 328.909C1478.4 320.753 1455.67 317.156 1432.94 318.351C1312.98 313.737 1193.02 313.737 1073.06 318.351C1050.15 316.384 1027.08 319.449 1005.48 327.333C983.872 335.216 964.252 347.727 947.99 363.989C931.728 380.251 919.217 399.871 911.333 421.476C903.45 443.081 900.385 466.148 902.352 489.061V668.999Z" fill="white"></path><path d="M1028.77 670.844C1028.89 610.923 1052.75 553.491 1095.12 511.12C1137.49 468.749 1194.92 444.891 1254.85 444.769C1314.43 445.949 1371.25 470.147 1413.4 512.291C1455.54 554.435 1479.74 611.255 1480.92 670.844C1480.8 730.766 1456.94 788.198 1414.57 830.569C1372.2 872.94 1314.77 896.798 1254.85 896.92C1195.26 895.74 1138.44 871.542 1096.29 829.398C1054.15 787.254 1029.95 730.434 1028.77 670.844ZM1254.85 527.817C1226.82 527.361 1199.3 535.284 1175.81 550.569C1152.32 565.855 1133.93 587.807 1122.99 613.612C1112.05 639.418 1109.07 667.9 1114.43 695.411C1119.79 722.921 1133.23 748.205 1153.05 768.023C1172.87 787.841 1198.15 801.29 1225.66 806.646C1253.18 812.002 1281.66 809.021 1307.46 798.086C1333.27 787.15 1355.22 768.758 1370.51 745.266C1385.79 721.775 1393.71 694.254 1393.26 666.231C1393.26 629.521 1378.68 594.315 1352.72 568.357C1326.76 542.4 1291.55 527.817 1254.85 527.817Z" fill="white"></path><path d="M1430.17 435.541C1429.91 428.201 1431.17 420.887 1433.86 414.053C1436.55 407.219 1440.62 401.012 1445.81 395.819C1451.01 390.625 1457.21 386.556 1464.05 383.865C1470.88 381.174 1478.2 379.918 1485.54 380.176C1499.9 381.148 1513.42 387.293 1523.6 397.473C1533.78 407.653 1539.93 421.177 1540.9 435.541C1540.9 450.225 1535.07 464.308 1524.68 474.691C1514.3 485.074 1500.22 490.907 1485.54 490.907C1470.85 490.907 1456.77 485.074 1446.39 474.691C1436 464.308 1430.17 450.225 1430.17 435.541Z" fill="white"></path><defs><linearGradient id="paint0_linear_358_592" x1="499.106" y1="1405.82" x2="2067.79" y2="-139.798" gradientUnits="userSpaceOnUse"><stop stop-color="#FED576"></stop><stop offset="0.26" stop-color="#F47133"></stop><stop offset="0.61" stop-color="#BC3081"></stop><stop offset="1" stop-color="#4C63D2"></stop></linearGradient></defs></svg>