<svg class="transform rotate-180" width="13" height="12" viewBox="0 0 13 12" fill="none" xmlns="http://www.w3.org/2000/svg"><path d="M0.2925 2.11L4.1825 6L0.2925 9.89C-0.0975 10.28 -0.0975 10.91 0.2925 11.3C0.6825 11.69 1.3125 11.69 1.7025 11.3L6.2925 6.71C6.6825 6.32 6.6825 5.69 6.2925 5.3L1.7025 0.7C1.3125 0.31 0.6825 0.31 0.2925 0.7C-0.0875 1.09 -0.0875 1.73 0.2925 2.11ZM11.0025 0C11.5525 0 12.0025 0.45 12.0025 1V11C12.0025 11.55 11.5525 12 11.0025 12C10.4525 12 10.0025 11.55 10.0025 11V1C10.0025 0.45 10.4525 0 11.0025 0Z" fill="black"></path></svg>