<?xml version="1.0" ?><svg height="24" id="svg8" version="1.1" viewBox="0 0 24 24" width="24" xmlns="http://www.w3.org/2000/svg" xmlns:cc="http://creativecommons.org/ns#" xmlns:dc="http://purl.org/dc/elements/1.1/" xmlns:rdf="http://www.w3.org/1999/02/22-rdf-syntax-ns#" xmlns:svg="http://www.w3.org/2000/svg"><defs id="defs2"/><g id="g1401" style="display:inline" transform="translate(-2.5353082e-4,-290.14999)"><path d="m 3,292.65 c -0.55228,0 -1,0.44772 -1,1 0,0.55228 0.44772,1 1,1 h 1 c 0.69236,0 1.27633,0.47734 1.41211,1.15625 0.73747,3.35779 1.4766,6.71912 2.21493,10.07812 C 7.9473,307.48612 9.36653,308.65 11,308.65 h 7 c 0.55228,0 1,-0.44772 1,-1 0,-0.55229 -0.44772,-1 -1,-1 h -7 c -1.17156,0 -1.34917,-0.87088 -1.59579,-1.99414 h 8.72851 c 0.40655,-2.1e-4 0.77251,-0.24651 0.92578,-0.62305 l 2.86728,-7.03906 C 22.19324,296.33629 21.70978,295.61722 21,295.6168 H 7.41797 C 7.02233,294.04368 5.64584,292.65 4,292.65 Z m 4.85742,4.9668 h 11.65625 l -2.05469,5.03906 H 8.96484 Z" id="path1376" style="color:#000000;font-style:normal;font-variant:normal;font-weight:normal;font-stretch:normal;font-size:medium;line-height:normal;font-family:sans-serif;font-variant-ligatures:normal;font-variant-position:normal;font-variant-caps:normal;font-variant-numeric:normal;font-variant-alternates:normal;font-variant-east-asian:normal;font-feature-settings:normal;font-variation-settings:normal;text-indent:0;text-align:start;text-decoration:none;text-decoration-line:none;text-decoration-style:solid;text-decoration-color:#000000;letter-spacing:normal;word-spacing:normal;text-transform:none;writing-mode:lr-tb;direction:ltr;text-orientation:mixed;dominant-baseline:auto;baseline-shift:baseline;text-anchor:start;white-space:normal;shape-padding:0;shape-margin:0;inline-size:0;clip-rule:nonzero;display:inline;overflow:visible;visibility:visible;opacity:1;isolation:auto;mix-blend-mode:normal;color-interpolation:sRGB;color-interpolation-filters:linearRGB;solid-color:#000000;solid-opacity:1;vector-effect:none;fill:#000000;fill-opacity:1;fill-rule:nonzero;stroke:none;stroke-linecap:round;stroke-linejoin:round;stroke-miterlimit:4;stroke-dasharray:none;stroke-dashoffset:0;stroke-opacity:1;color-rendering:auto;image-rendering:auto;shape-rendering:auto;text-rendering:auto;enable-background:accumulate;stop-color:#000000;stop-opacity:1"/><path d="m 11.13229,310.64999 a 1,1 0 0 1 -1,1 1,1 0 0 1 -1,-1 1,1 0 0 1 1,-1 1,1 0 0 1 1,1 z" id="path1380" style="fill:#000000;stroke:none;stroke-width:2;stroke-linecap:round;stroke-linejoin:round;stroke-miterlimit:4;stroke-dasharray:none;fill-opacity:1;opacity:1"/><path d="m 17.13229,310.64999 a 1,1 0 0 1 -1,1 1,1 0 0 1 -1,-1 1,1 0 0 1 1,-1 1,1 0 0 1 1,1 z" id="circle1382" style="fill:#000000;stroke:none;stroke-width:2;stroke-linecap:round;stroke-linejoin:round;stroke-miterlimit:4;stroke-dasharray:none;fill-opacity:1;opacity:1"/></g></svg>